<?xml version="1.0" encoding="UTF-8" standalone="no"?>
<svg width="114px" height="157px" viewBox="0 0 114 157" version="1.1" xmlns="http://www.w3.org/2000/svg" xmlns:xlink="http://www.w3.org/1999/xlink">
    <!-- Generator: Sketch 44.1 (41455) - http://www.bohemiancoding.com/sketch -->
    <title>noun_1037431_cc copy@2x</title>
    <desc>Created with Sketch.</desc>
    <defs></defs>
    <g id="Page-1" stroke="none" stroke-width="1" fill="none" fill-rule="evenodd">
        <g id="noun_1037431_cc-copy">
            <g id="Group" transform="translate(0.000000, 0.020512)">
                <g id="Group-3">
                    <path d="M4.81818182,0.579456 C2.10731212,0.598496 0.0165424242,3.284304 0,5.379456 L0,136.57952 C0.000321212121,139.09264 2.29554242,141.3792 4.81818182,141.37952 L101.181818,141.37952 C103.704458,141.3792 105.999679,139.09264 106,136.57952 L106,34.179456 C106,32.92168 105.4859,31.670416 104.594697,30.779456 L75.6856061,1.979456 C74.7911909,1.091648 73.5352515,0.576432 72.2727273,0.579456 L4.81818182,0.579456 Z M9.63636364,10.179456 L67.4545455,10.179456 L67.4545455,34.179456 C67.4548667,36.692672 69.7500879,38.979216 72.2727273,38.979456 L96.3636364,38.979456 L96.3636364,131.77952 L9.63636364,131.77952 L9.63636364,10.179456 Z M77.0909091,16.929456 L89.5881485,29.379456 L77.0909091,29.379456 L77.0909091,16.929456 Z M20.8787879,54.979456 C18.2178667,54.979456 16.0606061,57.128416 16.0606061,59.779456 C16.0606061,62.430336 18.2178667,64.579456 20.8787879,64.579456 L72.2727273,64.579456 C74.9338091,64.579456 77.0909091,62.430336 77.0909091,59.779456 C77.0909091,57.128416 74.9338091,54.979456 72.2727273,54.979456 L20.8787879,54.979456 Z M20.8787879,80.57952 C18.2178667,80.57952 16.0606061,82.72848 16.0606061,85.37952 C16.0606061,88.0304 18.2178667,90.17952 20.8787879,90.17952 L85.1212121,90.17952 C87.7822939,90.17952 89.9393939,88.0304 89.9393939,85.37952 C89.9393939,82.72848 87.7822939,80.57952 85.1212121,80.57952 L20.8787879,80.57952 Z M20.8787879,106.17952 C18.2178667,106.17952 16.0606061,108.32848 16.0606061,110.97952 C16.0606061,113.6304 18.2178667,115.77952 20.8787879,115.77952 L85.1212121,115.77952 C87.7822939,115.77952 89.9393939,113.6304 89.9393939,110.97952 C89.9393939,108.32848 87.7822939,106.17952 85.1212121,106.17952 L20.8787879,106.17952 Z" id="Shape" fill="#C4C4C4" fill-rule="nonzero"></path>
                    <circle id="Oval" fill="#FFFFFF" cx="88" cy="130.979488" r="26"></circle>
                    <g id="ic_help_black_24px" transform="translate(68.000000, 110.979488)" fill-rule="nonzero" fill="#C4C4C4">
                        <path d="M20,0 C8.96,0 0,8.96 0,20 C0,31.04 8.96,40 20,40 C31.04,40 40,31.04 40,20 C40,8.96 31.04,0 20,0 Z M22,34 L18,34 L18,30 L22,30 L22,34 Z M26.14,18.5 L24.34,20.34 C22.9,21.8 22,23 22,26 L18,26 L18,25 C18,22.8 18.9,20.8 20.34,19.34 L22.82,16.82 C23.56,16.1 24,15.1 24,14 C24,11.8 22.2,10 20,10 C17.8,10 16,11.8 16,14 L12,14 C12,9.58 15.58,6 20,6 C24.42,6 28,9.58 28,14 C28,15.76 27.28,17.36 26.14,18.5 Z" id="Shape"></path>
                    </g>
                </g>
            </g>
        </g>
    </g>
</svg>