<?xml version="1.0" encoding="UTF-8" standalone="no"?>
<svg width="173px" height="171px" viewBox="0 0 173 171" version="1.1" xmlns="http://www.w3.org/2000/svg" xmlns:xlink="http://www.w3.org/1999/xlink">
    <!-- Generator: Sketch 44.1 (41455) - http://www.bohemiancoding.com/sketch -->
    <title>noun_961250_cc@2x</title>
    <desc>Created with Sketch.</desc>
    <defs></defs>
    <g id="Page-1" stroke="none" stroke-width="1" fill="none" fill-rule="evenodd">
        <g id="noun_961250_cc" fill-rule="nonzero">
            <g id="Group">
                <path d="M85.5384615,71.8522222 C72.6538462,71.8522222 62.2692308,82.2322222 62.2692308,95.1111111 C62.2692308,107.99 72.6538462,118.37 85.5384615,118.37 C98.4230769,118.37 108.807692,107.99 108.807692,95.1111111 C108.807692,82.2322222 98.4230769,71.8522222 85.5384615,71.8522222 Z" id="Shape" fill="#00D473"></path>
                <path d="M104.576923,123.752222 L102.653846,123.752222 L101.5,124.905556 C97.0769231,129.134444 91.5,131.441111 85.5384615,131.441111 C79.5769231,131.441111 74,129.134444 69.5769231,124.905556 L68.4230769,123.752222 L66.5,123.752222 C52.2692308,124.905556 41.1153846,137.015556 41.1153846,151.24 L41.1153846,170.27 L129.961538,170.27 L129.961538,151.24 C129.961538,137.015556 118.807692,124.905556 104.576923,123.752222 Z" id="Shape" fill="#00D473"></path>
                <path d="M35.5384615,122.214444 C46.3076923,122.214444 54.9615385,113.564444 54.9615385,102.8 C54.9615385,92.0355556 46.3076923,83.3855556 35.5384615,83.3855556 C24.7692308,83.3855556 16.1153846,92.0355556 16.1153846,102.8 C16.1153846,113.564444 24.7692308,122.214444 35.5384615,122.214444 Z" id="Shape" fill="#C4C4C4"></path>
                <path d="M25.1538462,128.75 L24,127.596667 L20.1538462,127.596667 C9.38461538,127.596667 0.730769231,136.246667 0.730769231,147.011111 L0.730769231,162.581111 L35.7307692,162.581111 L35.7307692,133.363333 L35.5384615,133.363333 C31.3076923,133.363333 28.0384615,131.825556 25.1538462,128.75 Z" id="Shape" fill="#C4C4C4"></path>
                <path d="M154.961538,102.8 C154.961538,92.0355556 146.307692,83.3855556 135.538462,83.3855556 C124.769231,83.3855556 116.115385,92.0355556 116.115385,102.8 C116.115385,113.564444 124.769231,122.214444 135.538462,122.214444 C146.307692,122.214444 154.961538,113.564444 154.961538,102.8 Z" id="Shape" fill="#C4C4C4"></path>
                <path d="M150.923077,127.596667 L147.076923,127.596667 L145.923077,128.75 C143.423077,131.633333 139.769231,133.363333 135.538462,133.363333 L135.346154,133.363333 L135.346154,162.581111 L170.346154,162.581111 L170.346154,147.011111 C170.346154,136.246667 161.692308,127.596667 150.923077,127.596667 Z" id="Shape" fill="#C4C4C4"></path>
                <path d="M164.384615,35.33 L127.846154,35.33 C123.423077,35.33 119.961538,38.9822222 119.961538,43.2111111 L119.961538,62.4333333 C119.961538,66.8544444 123.615385,70.3144444 127.846154,70.3144444 L138.038462,70.3144444 L144.769231,84.3466667 L153.230769,70.3144444 L164.384615,70.3144444 C168.807692,70.3144444 172.269231,66.6622222 172.269231,62.4333333 L172.269231,43.2111111 C172.269231,38.79 168.807692,35.33 164.384615,35.33 Z" id="Shape" fill="#C4C4C4"></path>
                <path d="M37.4615385,56.8588889 L54.1923077,56.8588889 L64.7692308,75.5044444 L72.8461538,56.8588889 L104.769231,56.8588889 C109.192308,56.8588889 112.653846,53.2066667 112.653846,48.9777778 L112.653846,8.61111111 C112.653846,4.19 109,0.73 104.769231,0.73 L37.4615385,0.73 C33.0384615,0.73 29.5769231,4.38222222 29.5769231,8.61111111 L29.5769231,48.9777778 C29.5769231,53.3988889 33.0384615,56.8588889 37.4615385,56.8588889 Z M79.9615385,39.5588889 L52.6538462,39.5588889 L52.6538462,31.4855556 L79.9615385,31.4855556 L79.9615385,39.5588889 L79.9615385,39.5588889 Z M50.7307692,16.1077778 L93.4230769,16.1077778 L93.4230769,24.1811111 L50.7307692,24.1811111 L50.7307692,16.1077778 Z" id="Shape" fill="#00D473"></path>
            </g>
        </g>
    </g>
</svg>