<!DOCTYPE svg PUBLIC "-//W3C//DTD SVG 20010904//EN" "http://www.w3.org/TR/2001/REC-SVG-20010904/DTD/svg10.dtd">
<svg version="1.0" xmlns="http://www.w3.org/2000/svg" width="247px" height="241px" viewBox="0 0 2470 2410" preserveAspectRatio="xMidYMid meet">
<g id="layer1" fill="#ffffff" stroke="none">
 <path d="M1120 2219 c-140 -17 -311 -81 -427 -160 -172 -116 -308 -287 -383 -482 -55 -140 -86 -363 -57 -401 14 -19 26 -14 293 140 153 87 286 163 295 168 14 6 160 -73 637 -348 341 -195 627 -359 636 -362 19 -7 52 61 93 195 25 79 27 100 27 261 0 162 -2 182 -27 263 -56 180 -142 321 -278 453 -221 214 -508 311 -809 273z"/>
 <path d="M562 1227 c-155 -90 -287 -168 -292 -173 -11 -11 7 -93 25 -112 9 -10 63 16 275 139 145 84 271 154 280 156 9 2 272 -143 585 -323 l568 -328 33 40 c19 21 34 46 34 56 0 11 -185 123 -597 360 -328 188 -604 344 -612 346 -9 1 -143 -71 -299 -161z"/>
 <path d="M601 1001 c-134 -77 -250 -146 -258 -154 -13 -12 -13 -19 0 -48 36 -83 18 -87 273 61 126 73 234 133 240 133 6 0 227 -124 491 -276 264 -152 487 -277 495 -277 21 0 94 78 83 89 -17 17 -1056 611 -1068 611 -7 0 -122 -63 -256 -139z"/>
 <path d="M640 776 c-107 -63 -196 -118 -198 -124 -4 -14 57 -92 72 -92 6 0 85 43 177 95 l167 95 383 -221 383 -221 58 28 c37 18 58 33 56 43 -4 18 -856 511 -883 510 -11 0 -108 -51 -215 -113z"/>
 </g>

</svg>