<!DOCTYPE svg PUBLIC "-//W3C//DTD SVG 20010904//EN" "http://www.w3.org/TR/2001/REC-SVG-20010904/DTD/svg10.dtd">
<svg version="1.0" xmlns="http://www.w3.org/2000/svg" width="109px" height="87px" viewBox="0 0 1090 870" preserveAspectRatio="xMidYMid meet">
<g id="layer1" fill="#be0a40" stroke="none">
 <path d="M335 637 c-99 -68 -181 -131 -183 -139 -2 -11 12 -18 54 -27 32 -6 68 -11 81 -11 28 0 333 207 333 226 0 13 -77 74 -95 74 -6 0 -92 -56 -190 -123z"/>
 <path d="M655 487 c-66 -45 -120 -88 -120 -94 0 -6 21 -28 48 -48 l47 -36 105 72 c58 40 105 76 105 81 0 15 -50 108 -58 108 -4 0 -61 -37 -127 -83z"/>
 <path d="M343 315 c-29 -20 -53 -39 -53 -44 0 -10 155 -121 170 -121 18 0 100 62 100 76 0 11 -125 109 -153 120 -7 2 -36 -12 -64 -31z"/>
 </g>
<g id="layer2" fill="#ed1652" stroke="none">
 <path d="M567 658 c-26 -18 -47 -38 -47 -44 0 -13 143 -124 159 -124 18 0 101 63 101 77 0 13 -141 123 -157 123 -5 0 -30 -15 -56 -32z"/>
 <path d="M355 464 c-122 -84 -119 -80 -93 -142 12 -29 26 -52 32 -52 26 0 246 156 246 175 0 16 -72 75 -91 75 -8 0 -50 -25 -94 -56z"/>
 <path d="M659 302 c-168 -115 -209 -145 -209 -152 0 -10 90 -70 105 -70 20 0 380 249 380 263 0 11 -96 36 -141 37 -11 0 -72 -35 -135 -78z"/>
 </g>
<g id="layer3" fill="#ffffff" stroke="none">
 <path d="M0 435 l0 -435 545 0 545 0 0 435 0 435 -545 0 -545 0 0 -435z m678 200 c73 -53 98 -78 118 -117 14 -27 22 -53 20 -57 -3 -5 -46 -36 -96 -70 l-90 -62 -40 31 c-22 17 -40 33 -40 35 0 1 29 22 65 45 36 24 64 48 62 54 -2 6 -38 38 -81 70 l-77 60 -110 -76 -110 -75 -60 12 c-33 7 -62 14 -64 16 -2 2 76 59 173 125 l177 122 30 -22 c17 -13 72 -53 123 -91z m-175 -167 l28 -23 -65 -48 c-36 -26 -66 -51 -66 -55 0 -8 153 -122 163 -122 2 0 51 32 108 71 101 69 105 70 152 64 100 -13 101 -11 -83 -138 -94 -65 -176 -118 -181 -120 -6 -1 -66 39 -134 88 -107 78 -126 96 -142 135 -10 25 -18 49 -18 53 0 5 41 37 90 72 95 66 95 66 148 23z"/>
 </g>

</svg>